<svg version="1.1" preserveAspectRatio="none" xmlns="http://www.w3.org/2000/svg" width="500" height="500" viewBox="0 0 500 500"><rect width="100%" height="100%" fill="#FFFFFF" fill-opacity="1"/><svg viewBox="64.8233 141.6669 470.8632 100" width="333" height="70.72117761591902" x="83.5px" y="214.6394px" xmlns="http://www.w3.org/2000/svg" xmlns:xlink="http://www.w3.org/1999/xlink" preserveAspectRatio="none"><defs></defs><style>.companyName {fill:#182145;fill-opacity:1;}.icon1 {fill:#182145;fill-opacity:1;}.icon2 {fill:#E35B34;fill-opacity:1;}.icon3 {fill:#E3D454;fill-opacity:1;}.icon3-str {stroke:#E3D454;stroke-opacity:1;}</style><defs></defs><g opacity="1" transform="rotate(0 64.8233 141.6669)">
<svg width="87.5" height="100" x="64.8233" y="141.6669" version="1.1" preserveAspectRatio="none" viewBox="15 10 70 80">
  <g transform="matrix(1 0 0 1 0 0)"><defs><g id="id-IptOCySn0"><polygon points="21.667,73.809 21.667,33.867 49.997,17.679 78.334,33.867 78.334,66.13 49.997,82.321 35,73.75 35,41.604   49.997,33.034 65,41.604 65,58.392 49.997,66.963 48.334,66.013 48.334,49.343 56.716,44.551 49.997,40.713 41.667,45.476   41.667,69.88 49.997,74.642 71.667,62.259 71.667,37.737 49.997,25.358 28.334,37.737 28.334,77.617 49.997,90 85,70 85,30   49.997,10 15,30 15,70 "></polygon></g></defs><use class="icon1" xlink:href="#id-IptOCySn0"></use></g>
</svg>
</g><g opacity="1" transform="rotate(0 182.3233 141.6669)">
<svg width="353.3632" height="100" x="182.3233" y="141.6669" version="1.1" preserveAspectRatio="none" viewBox="3.32 -28 241.95999999999998 68.48">
  <g transform="matrix(1 0 0 1 0 0)" class="companyName"><path id="id-D6z1nYkh11" d="M34.88 0L28.80 0L28.76-16.80L20.52-2.96L17.60-2.96L9.40-16.44L9.40 0L3.32 0L3.32-28L8.68-28L19.16-10.60L29.48-28L34.80-28L34.88 0Z M65.84-28L54.96-9.92L54.96 0L48.48 0L48.48-10L37.64-28L44.52-28L52-15.56L59.48-28L65.84-28Z M15.44 12Q19.16 12 21.90 13.24Q24.64 14.48 26.12 16.76Q27.60 19.04 27.60 22.16L27.60 22.16Q27.60 25.24 26.12 27.54Q24.64 29.84 21.90 31.06Q19.16 32.28 15.44 32.28L15.44 32.28L9.80 32.28L9.80 40L3.32 40L3.32 12L15.44 12ZM15.08 27Q18 27 19.52 25.74Q21.04 24.48 21.04 22.16L21.04 22.16Q21.04 19.80 19.52 18.54Q18 17.28 15.08 17.28L15.08 17.28L9.80 17.28L9.80 27L15.08 27Z M46.16 40.48Q41.80 40.48 38.30 38.60Q34.80 36.72 32.82 33.42Q30.84 30.12 30.84 26L30.84 26Q30.84 21.88 32.82 18.58Q34.80 15.28 38.30 13.40Q41.80 11.52 46.16 11.52L46.16 11.52Q50.52 11.52 54 13.40Q57.48 15.28 59.48 18.58Q61.48 21.88 61.48 26L61.48 26Q61.48 30.12 59.48 33.42Q57.48 36.72 54 38.60Q50.52 40.48 46.16 40.48L46.16 40.48ZM46.16 34.96Q48.64 34.96 50.64 33.82Q52.64 32.68 53.78 30.64Q54.92 28.60 54.92 26L54.92 26Q54.92 23.40 53.78 21.36Q52.64 19.32 50.64 18.18Q48.64 17.04 46.16 17.04L46.16 17.04Q43.68 17.04 41.68 18.18Q39.68 19.32 38.54 21.36Q37.40 23.40 37.40 26L37.40 26Q37.40 28.60 38.54 30.64Q39.68 32.68 41.68 33.82Q43.68 34.96 46.16 34.96L46.16 34.96Z M91.16 40L84.20 40L78.80 32.20L78.48 32.20L72.84 32.20L72.84 40L66.36 40L66.36 12L78.48 12Q82.20 12 84.94 13.24Q87.68 14.48 89.16 16.76Q90.64 19.04 90.64 22.16L90.64 22.16Q90.64 25.28 89.14 27.54Q87.64 29.80 84.88 31L84.88 31L91.16 40ZM84.08 22.16Q84.08 19.80 82.56 18.54Q81.04 17.28 78.12 17.28L78.12 17.28L72.84 17.28L72.84 27.04L78.12 27.04Q81.04 27.04 82.56 25.76Q84.08 24.48 84.08 22.16L84.08 22.16Z M101.16 40L101.16 17.28L92.20 17.28L92.20 12L116.60 12L116.60 17.28L107.64 17.28L107.64 40L101.16 40Z M141.24 17.20L126.56 17.20L126.56 24.60L139.52 24.60L139.52 29.80L126.56 29.80L126.56 40L120.08 40L120.08 12L141.24 12L141.24 17.20Z M158.92 40.48Q154.56 40.48 151.06 38.60Q147.56 36.72 145.58 33.42Q143.60 30.12 143.60 26L143.60 26Q143.60 21.88 145.58 18.58Q147.56 15.28 151.06 13.40Q154.56 11.52 158.92 11.52L158.92 11.52Q163.28 11.52 166.76 13.40Q170.24 15.28 172.24 18.58Q174.24 21.88 174.24 26L174.24 26Q174.24 30.12 172.24 33.42Q170.24 36.72 166.76 38.60Q163.28 40.48 158.92 40.48L158.92 40.48ZM158.92 34.96Q161.40 34.96 163.40 33.82Q165.40 32.68 166.54 30.64Q167.68 28.60 167.68 26L167.68 26Q167.68 23.40 166.54 21.36Q165.40 19.32 163.40 18.18Q161.40 17.04 158.92 17.04L158.92 17.04Q156.44 17.04 154.44 18.18Q152.44 19.32 151.30 21.36Q150.16 23.40 150.16 26L150.16 26Q150.16 28.60 151.30 30.64Q152.44 32.68 154.44 33.82Q156.44 34.96 158.92 34.96L158.92 34.96Z M179.12 40L179.12 12L185.60 12L185.60 34.72L199.64 34.72L199.64 40L179.12 40Z M203.28 40L203.28 12L209.76 12L209.76 40L203.28 40Z M229.96 40.48Q225.60 40.48 222.10 38.60Q218.60 36.72 216.62 33.42Q214.64 30.12 214.64 26L214.64 26Q214.64 21.88 216.62 18.58Q218.60 15.28 222.10 13.40Q225.60 11.52 229.96 11.52L229.96 11.52Q234.32 11.52 237.80 13.40Q241.28 15.28 243.28 18.58Q245.28 21.88 245.28 26L245.28 26Q245.28 30.12 243.28 33.42Q241.28 36.72 237.80 38.60Q234.32 40.48 229.96 40.48L229.96 40.48ZM229.96 34.96Q232.44 34.96 234.44 33.82Q236.44 32.68 237.58 30.64Q238.72 28.60 238.72 26L238.72 26Q238.72 23.40 237.58 21.36Q236.44 19.32 234.44 18.18Q232.44 17.04 229.96 17.04L229.96 17.04Q227.48 17.04 225.48 18.18Q223.48 19.32 222.34 21.36Q221.20 23.40 221.20 26L221.20 26Q221.20 28.60 222.34 30.64Q223.48 32.68 225.48 33.82Q227.48 34.96 229.96 34.96L229.96 34.96Z"/></g>
</svg>
</g></svg></svg>